<svg width="43" height="266" viewBox="0 0 43 266" fill="none" xmlns="http://www.w3.org/2000/svg">
<circle cx="2.08644" cy="2.08644" r="2.08644" fill="#1ED0BD"/>
<circle cx="21.7586" cy="2.08644" r="2.08644" fill="#1ED0BD"/>
<circle cx="11.6245" cy="2.08644" r="2.08644" fill="#1ED0BD"/>
<circle cx="31.2966" cy="2.08644" r="2.08644" fill="#1ED0BD"/>
<circle cx="40.8347" cy="2.08644" r="2.08644" fill="#1ED0BD"/>
<circle cx="2.08644" cy="10.2593" r="2.08644" fill="#1ED0BD"/>
<circle cx="21.7586" cy="10.2593" r="2.08644" fill="#1ED0BD"/>
<circle cx="11.6245" cy="10.2593" r="2.08644" fill="#1ED0BD"/>
<circle cx="31.2966" cy="10.2593" r="2.08644" fill="#1ED0BD"/>
<circle cx="40.8347" cy="10.2593" r="2.08644" fill="#1ED0BD"/>
<circle cx="2.08644" cy="18.4323" r="2.08644" fill="#1ED0BD"/>
<circle cx="21.7586" cy="18.4323" r="2.08644" fill="#1ED0BD"/>
<circle cx="11.6245" cy="18.4323" r="2.08644" fill="#1ED0BD"/>
<circle cx="31.2966" cy="18.4323" r="2.08644" fill="#1ED0BD"/>
<circle cx="40.8347" cy="18.4323" r="2.08644" fill="#1ED0BD"/>
<circle cx="2.08644" cy="26.6051" r="2.08644" fill="#1ED0BD"/>
<circle cx="21.7586" cy="26.6051" r="2.08644" fill="#1ED0BD"/>
<circle cx="11.6245" cy="26.6051" r="2.08644" fill="#1ED0BD"/>
<circle cx="31.2966" cy="26.6051" r="2.08644" fill="#1ED0BD"/>
<circle cx="40.8347" cy="26.6051" r="2.08644" fill="#1ED0BD"/>
<circle cx="2.08644" cy="34.778" r="2.08644" fill="#1ED0BD"/>
<circle cx="21.7586" cy="34.778" r="2.08644" fill="#1ED0BD"/>
<circle cx="11.6245" cy="34.778" r="2.08644" fill="#1ED0BD"/>
<circle cx="31.2966" cy="34.778" r="2.08644" fill="#1ED0BD"/>
<circle cx="40.8347" cy="34.778" r="2.08644" fill="#1ED0BD"/>
<circle cx="2.08644" cy="42.9508" r="2.08644" fill="#1ED0BD"/>
<circle cx="21.7586" cy="42.9508" r="2.08644" fill="#1ED0BD"/>
<circle cx="11.6245" cy="42.9508" r="2.08644" fill="#1ED0BD"/>
<circle cx="31.2966" cy="42.9508" r="2.08644" fill="#1ED0BD"/>
<circle cx="40.8347" cy="42.9508" r="2.08644" fill="#1ED0BD"/>
<circle cx="2.08644" cy="51.1238" r="2.08644" fill="#F2F2F2"/>
<circle cx="21.7586" cy="51.1238" r="2.08644" fill="#F2F2F2"/>
<circle cx="11.6245" cy="51.1238" r="2.08644" fill="#F2F2F2"/>
<circle cx="31.2966" cy="51.1238" r="2.08644" fill="#F2F2F2"/>
<circle cx="40.8347" cy="51.1238" r="2.08644" fill="#F2F2F2"/>
<circle cx="2.08644" cy="59.2966" r="2.08644" fill="#F2F2F2"/>
<circle cx="21.7586" cy="59.2966" r="2.08644" fill="#F2F2F2"/>
<circle cx="11.6245" cy="59.2966" r="2.08644" fill="#F2F2F2"/>
<circle cx="31.2966" cy="59.2966" r="2.08644" fill="#F2F2F2"/>
<circle cx="40.8347" cy="59.2966" r="2.08644" fill="#F2F2F2"/>
<circle cx="2.08644" cy="67.4696" r="2.08644" fill="#F2F2F2"/>
<circle cx="21.7586" cy="67.4696" r="2.08644" fill="#F2F2F2"/>
<circle cx="11.6245" cy="67.4696" r="2.08644" fill="#F2F2F2"/>
<circle cx="31.2966" cy="67.4696" r="2.08644" fill="#F2F2F2"/>
<circle cx="40.8347" cy="67.4696" r="2.08644" fill="#F2F2F2"/>
<circle cx="2.08644" cy="75.6425" r="2.08644" fill="#F2F2F2"/>
<circle cx="21.7586" cy="75.6425" r="2.08644" fill="#F2F2F2"/>
<circle cx="11.6245" cy="75.6425" r="2.08644" fill="#F2F2F2"/>
<circle cx="31.2966" cy="75.6425" r="2.08644" fill="#F2F2F2"/>
<circle cx="40.8347" cy="75.6425" r="2.08644" fill="#F2F2F2"/>
<circle cx="2.08644" cy="83.8153" r="2.08644" fill="#F2F2F2"/>
<circle cx="21.7586" cy="83.8153" r="2.08644" fill="#F2F2F2"/>
<circle cx="11.6245" cy="83.8153" r="2.08644" fill="#F2F2F2"/>
<circle cx="31.2966" cy="83.8153" r="2.08644" fill="#F2F2F2"/>
<circle cx="40.8347" cy="83.8153" r="2.08644" fill="#F2F2F2"/>
<circle cx="2.08644" cy="91.9882" r="2.08644" fill="#F2F2F2"/>
<circle cx="21.7586" cy="91.9882" r="2.08644" fill="#F2F2F2"/>
<circle cx="11.6245" cy="91.9882" r="2.08644" fill="#F2F2F2"/>
<circle cx="31.2966" cy="91.9882" r="2.08644" fill="#F2F2F2"/>
<circle cx="40.8347" cy="91.9882" r="2.08644" fill="#F2F2F2"/>
<circle cx="2.08644" cy="100.161" r="2.08644" fill="#F2F2F2"/>
<circle cx="21.7586" cy="100.161" r="2.08644" fill="#F2F2F2"/>
<circle cx="11.6245" cy="100.161" r="2.08644" fill="#F2F2F2"/>
<circle cx="31.2966" cy="100.161" r="2.08644" fill="#F2F2F2"/>
<circle cx="40.8347" cy="100.161" r="2.08644" fill="#F2F2F2"/>
<circle cx="2.08644" cy="108.334" r="2.08644" fill="#F2F2F2"/>
<circle cx="21.7586" cy="108.334" r="2.08644" fill="#F2F2F2"/>
<circle cx="11.6245" cy="108.334" r="2.08644" fill="#F2F2F2"/>
<circle cx="31.2966" cy="108.334" r="2.08644" fill="#F2F2F2"/>
<circle cx="40.8347" cy="108.334" r="2.08644" fill="#F2F2F2"/>
<circle cx="2.08644" cy="116.507" r="2.08644" fill="#F2F2F2"/>
<circle cx="21.7586" cy="116.507" r="2.08644" fill="#F2F2F2"/>
<circle cx="11.6245" cy="116.507" r="2.08644" fill="#F2F2F2"/>
<circle cx="31.2966" cy="116.507" r="2.08644" fill="#F2F2F2"/>
<circle cx="40.8347" cy="116.507" r="2.08644" fill="#F2F2F2"/>
<circle cx="2.08644" cy="124.68" r="2.08644" fill="#F2F2F2"/>
<circle cx="21.7586" cy="124.68" r="2.08644" fill="#F2F2F2"/>
<circle cx="11.6245" cy="124.68" r="2.08644" fill="#F2F2F2"/>
<circle cx="31.2966" cy="124.68" r="2.08644" fill="#F2F2F2"/>
<circle cx="40.8347" cy="124.68" r="2.08644" fill="#F2F2F2"/>
<circle cx="2.08644" cy="132.853" r="2.08644" fill="#F2F2F2"/>
<circle cx="21.7586" cy="132.853" r="2.08644" fill="#F2F2F2"/>
<circle cx="11.6245" cy="132.853" r="2.08644" fill="#F2F2F2"/>
<circle cx="31.2966" cy="132.853" r="2.08644" fill="#F2F2F2"/>
<circle cx="40.8347" cy="132.853" r="2.08644" fill="#F2F2F2"/>
<circle cx="2.08644" cy="141.026" r="2.08644" fill="#F2F2F2"/>
<circle cx="21.7586" cy="141.026" r="2.08644" fill="#F2F2F2"/>
<circle cx="11.6245" cy="141.026" r="2.08644" fill="#F2F2F2"/>
<circle cx="31.2966" cy="141.026" r="2.08644" fill="#F2F2F2"/>
<circle cx="40.8347" cy="141.026" r="2.08644" fill="#F2F2F2"/>
<circle cx="2.08644" cy="149.198" r="2.08644" fill="#F2F2F2"/>
<circle cx="21.7586" cy="149.198" r="2.08644" fill="#F2F2F2"/>
<circle cx="11.6245" cy="149.198" r="2.08644" fill="#F2F2F2"/>
<circle cx="31.2966" cy="149.198" r="2.08644" fill="#F2F2F2"/>
<circle cx="40.8347" cy="149.198" r="2.08644" fill="#F2F2F2"/>
<circle cx="2.08644" cy="157.371" r="2.08644" fill="#F2F2F2"/>
<circle cx="21.7586" cy="157.371" r="2.08644" fill="#F2F2F2"/>
<circle cx="11.6245" cy="157.371" r="2.08644" fill="#F2F2F2"/>
<circle cx="31.2966" cy="157.371" r="2.08644" fill="#F2F2F2"/>
<circle cx="40.8347" cy="157.371" r="2.08644" fill="#F2F2F2"/>
<circle cx="2.08644" cy="165.544" r="2.08644" fill="#F2F2F2"/>
<circle cx="21.7586" cy="165.544" r="2.08644" fill="#F2F2F2"/>
<circle cx="11.6245" cy="165.544" r="2.08644" fill="#F2F2F2"/>
<circle cx="31.2966" cy="165.544" r="2.08644" fill="#F2F2F2"/>
<circle cx="40.8347" cy="165.544" r="2.08644" fill="#F2F2F2"/>
<circle cx="2.08644" cy="173.717" r="2.08644" fill="#F2F2F2"/>
<circle cx="21.7586" cy="173.717" r="2.08644" fill="#F2F2F2"/>
<circle cx="11.6245" cy="173.717" r="2.08644" fill="#F2F2F2"/>
<circle cx="31.2966" cy="173.717" r="2.08644" fill="#F2F2F2"/>
<circle cx="40.8347" cy="173.717" r="2.08644" fill="#F2F2F2"/>
<circle cx="2.08644" cy="181.89" r="2.08644" fill="#F2F2F2"/>
<circle cx="21.7586" cy="181.89" r="2.08644" fill="#F2F2F2"/>
<circle cx="11.6245" cy="181.89" r="2.08644" fill="#F2F2F2"/>
<circle cx="31.2966" cy="181.89" r="2.08644" fill="#F2F2F2"/>
<circle cx="40.8347" cy="181.89" r="2.08644" fill="#F2F2F2"/>
<circle cx="2.08644" cy="190.063" r="2.08644" fill="#F2F2F2"/>
<circle cx="21.7586" cy="190.063" r="2.08644" fill="#F2F2F2"/>
<circle cx="11.6245" cy="190.063" r="2.08644" fill="#F2F2F2"/>
<circle cx="31.2966" cy="190.063" r="2.08644" fill="#F2F2F2"/>
<circle cx="40.8347" cy="190.063" r="2.08644" fill="#F2F2F2"/>
<circle cx="2.08644" cy="198.236" r="2.08644" fill="#F2F2F2"/>
<circle cx="21.7586" cy="198.236" r="2.08644" fill="#F2F2F2"/>
<circle cx="11.6245" cy="198.236" r="2.08644" fill="#F2F2F2"/>
<circle cx="31.2966" cy="198.236" r="2.08644" fill="#F2F2F2"/>
<circle cx="40.8347" cy="198.236" r="2.08644" fill="#F2F2F2"/>
<circle cx="2.08644" cy="206.409" r="2.08644" fill="#F2F2F2"/>
<circle cx="21.7586" cy="206.409" r="2.08644" fill="#F2F2F2"/>
<circle cx="11.6245" cy="206.409" r="2.08644" fill="#F2F2F2"/>
<circle cx="31.2966" cy="206.409" r="2.08644" fill="#F2F2F2"/>
<circle cx="40.8347" cy="206.409" r="2.08644" fill="#F2F2F2"/>
<circle cx="2.08644" cy="214.581" r="2.08644" fill="#F2F2F2"/>
<circle cx="21.7586" cy="214.581" r="2.08644" fill="#F2F2F2"/>
<circle cx="11.6245" cy="214.581" r="2.08644" fill="#F2F2F2"/>
<circle cx="31.2966" cy="214.581" r="2.08644" fill="#F2F2F2"/>
<circle cx="40.8347" cy="214.581" r="2.08644" fill="#F2F2F2"/>
<circle cx="2.08644" cy="222.754" r="2.08644" fill="#F2F2F2"/>
<circle cx="21.7586" cy="222.754" r="2.08644" fill="#F2F2F2"/>
<circle cx="11.6245" cy="222.754" r="2.08644" fill="#F2F2F2"/>
<circle cx="31.2966" cy="222.754" r="2.08644" fill="#F2F2F2"/>
<circle cx="40.8347" cy="222.754" r="2.08644" fill="#F2F2F2"/>
<circle cx="2.08644" cy="230.927" r="2.08644" fill="#F2F2F2"/>
<circle cx="21.7586" cy="230.927" r="2.08644" fill="#F2F2F2"/>
<circle cx="11.6245" cy="230.927" r="2.08644" fill="#F2F2F2"/>
<circle cx="31.2966" cy="230.927" r="2.08644" fill="#F2F2F2"/>
<circle cx="40.8347" cy="230.927" r="2.08644" fill="#F2F2F2"/>
<circle cx="2.08644" cy="239.1" r="2.08644" fill="#F2F2F2"/>
<circle cx="21.7586" cy="239.1" r="2.08644" fill="#F2F2F2"/>
<circle cx="11.6245" cy="239.1" r="2.08644" fill="#F2F2F2"/>
<circle cx="31.2966" cy="239.1" r="2.08644" fill="#F2F2F2"/>
<circle cx="40.8347" cy="239.1" r="2.08644" fill="#F2F2F2"/>
<circle cx="2.08644" cy="247.273" r="2.08644" fill="#F2F2F2"/>
<circle cx="21.7586" cy="247.273" r="2.08644" fill="#F2F2F2"/>
<circle cx="11.6245" cy="247.273" r="2.08644" fill="#F2F2F2"/>
<circle cx="31.2966" cy="247.273" r="2.08644" fill="#F2F2F2"/>
<circle cx="40.8347" cy="247.273" r="2.08644" fill="#F2F2F2"/>
<circle cx="2.08644" cy="255.446" r="2.08644" fill="#F2F2F2"/>
<circle cx="21.7586" cy="255.446" r="2.08644" fill="#F2F2F2"/>
<circle cx="11.6245" cy="255.446" r="2.08644" fill="#F2F2F2"/>
<circle cx="31.2966" cy="255.446" r="2.08644" fill="#F2F2F2"/>
<circle cx="40.8347" cy="255.446" r="2.08644" fill="#F2F2F2"/>
<circle cx="2.08644" cy="263.619" r="2.08644" fill="#F2F2F2"/>
<circle cx="21.7586" cy="263.619" r="2.08644" fill="#F2F2F2"/>
<circle cx="11.6245" cy="263.619" r="2.08644" fill="#F2F2F2"/>
<circle cx="31.2966" cy="263.619" r="2.08644" fill="#F2F2F2"/>
<circle cx="40.8347" cy="263.619" r="2.08644" fill="#F2F2F2"/>
</svg>
