<svg width="14" height="13" viewBox="0 0 14 13" fill="none" xmlns="http://www.w3.org/2000/svg">
<path d="M13.3968 12.5001V12.4996H13.4V8.09861C13.4 5.94566 12.9056 4.28711 10.2208 4.28711C8.93006 4.28711 8.06398 4.95116 7.71038 5.58056H7.6731V4.48811H5.1275V12.4996H7.77822V8.53256C7.77822 7.48811 7.98942 6.47801 9.3691 6.47801C10.7286 6.47801 10.7488 7.67006 10.7488 8.59946V12.5001H13.3968Z" fill="#0073B1"/>
<path d="M0.811157 4.48853H3.46507V12.5H0.811157V4.48853Z" fill="#0073B1"/>
<path d="M2.1371 0.5C1.28846 0.5 0.599976 1.14545 0.599976 1.94105C0.599976 2.73665 1.28846 3.3956 2.1371 3.3956C2.98574 3.3956 3.67422 2.73665 3.67422 1.94105C3.67358 1.14545 2.9851 0.5 2.1371 0.5Z" fill="#0073B1"/>
</svg>
