<svg width="15" height="11" viewBox="0 0 15 11" fill="none" xmlns="http://www.w3.org/2000/svg">
<path d="M12.5846 10.8613H2.41544C1.08144 10.8613 0 9.77989 0 8.44589V2.55411C0 1.22011 1.08144 0.138672 2.41544 0.138672H12.5846C13.9186 0.138672 15 1.22011 15 2.55411V8.44592C15 9.77989 13.9186 10.8613 12.5846 10.8613Z" fill="#F44336"/>
<path d="M12.5855 0.138672H11.6801C13.0135 0.138672 14.0945 1.22052 14.0945 2.55505V8.44495C14.0945 9.77948 13.0135 10.8613 11.6801 10.8613H12.5855C13.919 10.8613 15 9.77948 15 8.44495V2.55505C15 1.22052 13.919 0.138672 12.5855 0.138672Z" fill="#E53935"/>
<path d="M5.70563 3.39936V7.60079C5.70563 7.8804 6.01075 8.05282 6.24999 7.90841L9.72988 5.80768C9.96129 5.66799 9.96129 5.33216 9.72988 5.19244L6.24999 3.09171C6.01075 2.94734 5.70563 3.11975 5.70563 3.39936Z" fill="white"/>
</svg>
